<svg width="23" height="21" viewBox="0 0 23 21" fill="none" xmlns="http://www.w3.org/2000/svg">
<path d="M11.5107 3.24757C11.4409 3.18081 11.348 3.14355 11.2515 3.14355C11.1549 3.14355 11.062 3.18081 10.9922 3.24757L2.36255 11.4915C2.3259 11.5265 2.29674 11.5687 2.27684 11.6153C2.25694 11.662 2.24671 11.7122 2.24677 11.7629L2.24536 19.5001C2.24536 19.8979 2.4034 20.2794 2.6847 20.5607C2.96601 20.842 3.34754 21.0001 3.74536 21.0001H8.25005C8.44896 21.0001 8.63973 20.9211 8.78038 20.7804C8.92103 20.6398 9.00005 20.449 9.00005 20.2501V13.8751C9.00005 13.7756 9.03956 13.6802 9.10988 13.6099C9.18021 13.5396 9.27559 13.5001 9.37505 13.5001H13.125C13.2245 13.5001 13.3199 13.5396 13.3902 13.6099C13.4605 13.6802 13.5 13.7756 13.5 13.8751V20.2501C13.5 20.449 13.5791 20.6398 13.7197 20.7804C13.8604 20.9211 14.0511 21.0001 14.25 21.0001H18.7529C19.1507 21.0001 19.5322 20.842 19.8135 20.5607C20.0948 20.2794 20.2529 19.8979 20.2529 19.5001V11.7629C20.2529 11.7122 20.2427 11.662 20.2228 11.6153C20.2029 11.5687 20.1737 11.5265 20.1371 11.4915L11.5107 3.24757Z" fill="black"/>
<path d="M22.2614 9.94453L18.7552 6.59016V1.5C18.7552 1.30109 18.6762 1.11032 18.5355 0.96967C18.3949 0.829018 18.2041 0.75 18.0052 0.75H15.7552C15.5563 0.75 15.3655 0.829018 15.2248 0.96967C15.0842 1.11032 15.0052 1.30109 15.0052 1.5V3L12.2902 0.404062C12.0361 0.147187 11.6583 0 11.25 0C10.8431 0 10.4663 0.147188 10.2122 0.404531L0.241893 9.94359C-0.0496697 10.2248 -0.0862322 10.6875 0.17908 10.9922C0.245704 11.0691 0.327281 11.1316 0.418845 11.176C0.51041 11.2204 0.610047 11.2457 0.711693 11.2503C0.813339 11.255 0.914868 11.2389 1.0101 11.2031C1.10533 11.1672 1.19228 11.1124 1.26564 11.0419L10.9922 1.7475C11.062 1.68074 11.1548 1.64348 11.2514 1.64348C11.348 1.64348 11.4409 1.68074 11.5106 1.7475L21.2381 11.0419C21.3814 11.1793 21.5734 11.2543 21.7719 11.2504C21.9704 11.2465 22.1592 11.1641 22.297 11.0212C22.5849 10.7231 22.561 10.2309 22.2614 9.94453Z" fill="black"/>
</svg>
