<svg width="20" height="23" viewBox="0 0 20 23" fill="none" xmlns="http://www.w3.org/2000/svg">
<path d="M2.625 22.5H1.125C0.826631 22.5 0.540483 22.3815 0.329505 22.1705C0.118526 21.9595 0 21.6734 0 21.375V14.625C0 14.3266 0.118526 14.0405 0.329505 13.8295C0.540483 13.6185 0.826631 13.5 1.125 13.5H2.625C2.92337 13.5 3.20952 13.6185 3.4205 13.8295C3.63147 14.0405 3.75 14.3266 3.75 14.625V21.375C3.75 21.6734 3.63147 21.9595 3.4205 22.1705C3.20952 22.3815 2.92337 22.5 2.625 22.5ZM13.125 22.5H11.625C11.3266 22.5 11.0405 22.3815 10.8295 22.1705C10.6185 21.9595 10.5 21.6734 10.5 21.375V10.125C10.5 9.82663 10.6185 9.54048 10.8295 9.3295C11.0405 9.11853 11.3266 9 11.625 9H13.125C13.4234 9 13.7095 9.11853 13.9205 9.3295C14.1315 9.54048 14.25 9.82663 14.25 10.125V21.375C14.25 21.6734 14.1315 21.9595 13.9205 22.1705C13.7095 22.3815 13.4234 22.5 13.125 22.5ZM18.375 22.5H16.875C16.5766 22.5 16.2905 22.3815 16.0795 22.1705C15.8685 21.9595 15.75 21.6734 15.75 21.375V4.875C15.75 4.57663 15.8685 4.29048 16.0795 4.0795C16.2905 3.86853 16.5766 3.75 16.875 3.75H18.375C18.6734 3.75 18.9595 3.86853 19.1705 4.0795C19.3815 4.29048 19.5 4.57663 19.5 4.875V21.375C19.5 21.6734 19.3815 21.9595 19.1705 22.1705C18.9595 22.3815 18.6734 22.5 18.375 22.5ZM7.875 22.5H6.375C6.07663 22.5 5.79048 22.3815 5.5795 22.1705C5.36853 21.9595 5.25 21.6734 5.25 21.375V1.125C5.25 0.826631 5.36853 0.540483 5.5795 0.329505C5.79048 0.118526 6.07663 0 6.375 0H7.875C8.17337 0 8.45952 0.118526 8.6705 0.329505C8.88147 0.540483 9 0.826631 9 1.125V21.375C9 21.6734 8.88147 21.9595 8.6705 22.1705C8.45952 22.3815 8.17337 22.5 7.875 22.5Z" fill="black"/>
</svg>
