<svg width="20" height="18" viewBox="0 0 20 18" fill="none" xmlns="http://www.w3.org/2000/svg">
<mask id="mask0_290_53" style="mask-type:alpha" maskUnits="userSpaceOnUse" x="0" y="0" width="20" height="18">
<path d="M2.75759 2.4121H16.5456C16.7066 2.41203 16.8675 2.42225 17.0273 2.4427C16.9731 2.06257 16.8426 1.69734 16.6434 1.36904C16.4443 1.04074 16.1808 0.75616 15.8687 0.532462C15.5566 0.308765 15.2025 0.150582 14.8276 0.0674507C14.4528 -0.0156805 14.065 -0.022038 13.6876 0.0487613L2.34826 1.98468H2.33534C1.62356 2.12079 0.990606 2.5235 0.565737 3.11055C1.20584 2.65526 1.97208 2.41109 2.75759 2.4121ZM16.5456 3.4462H2.75759C2.02648 3.447 1.32554 3.73779 0.808562 4.25476C0.291586 4.77174 0.000798347 5.47268 0 6.2038V14.4766C0.000798347 15.2077 0.291586 15.9086 0.808562 16.4256C1.32554 16.9426 2.02648 17.2334 2.75759 17.2342H16.5456C17.2767 17.2334 17.9776 16.9426 18.4946 16.4256C19.0116 15.9086 19.3024 15.2077 19.3032 14.4766V6.2038C19.3024 5.47268 19.0116 4.77174 18.4946 4.25476C17.9776 3.73779 17.2767 3.447 16.5456 3.4462ZM14.4989 11.719C14.2262 11.719 13.9596 11.6381 13.7329 11.4866C13.5061 11.3351 13.3294 11.1198 13.2251 10.8678C13.1207 10.6159 13.0934 10.3387 13.1466 10.0712C13.1998 9.80373 13.3311 9.55806 13.524 9.36523C13.7168 9.1724 13.9625 9.04108 14.2299 8.98788C14.4974 8.93468 14.7746 8.96198 15.0265 9.06634C15.2785 9.1707 15.4938 9.34742 15.6453 9.57417C15.7968 9.80091 15.8777 10.0675 15.8777 10.3402C15.8777 10.7059 15.7324 11.0566 15.4739 11.3151C15.2153 11.5737 14.8646 11.719 14.4989 11.719Z" fill="white"/>
</mask>
<g mask="url(#mask0_290_53)">
<path d="M2.75759 2.4121H16.5456C16.7066 2.41203 16.8675 2.42225 17.0273 2.4427C16.9731 2.06257 16.8426 1.69734 16.6434 1.36904C16.4443 1.04074 16.1808 0.75616 15.8687 0.532462C15.5566 0.308765 15.2025 0.150582 14.8276 0.0674507C14.4528 -0.0156805 14.065 -0.022038 13.6876 0.0487613L2.34826 1.98468H2.33534C1.62356 2.12079 0.990606 2.5235 0.565737 3.11055C1.20584 2.65526 1.97208 2.41109 2.75759 2.4121ZM16.5456 3.4462H2.75759C2.02648 3.447 1.32554 3.73779 0.808562 4.25476C0.291586 4.77174 0.000798347 5.47268 0 6.2038V14.4766C0.000798347 15.2077 0.291586 15.9086 0.808562 16.4256C1.32554 16.9426 2.02648 17.2334 2.75759 17.2342H16.5456C17.2767 17.2334 17.9776 16.9426 18.4946 16.4256C19.0116 15.9086 19.3024 15.2077 19.3032 14.4766V6.2038C19.3024 5.47268 19.0116 4.77174 18.4946 4.25476C17.9776 3.73779 17.2767 3.447 16.5456 3.4462ZM14.4989 11.719C14.2262 11.719 13.9596 11.6381 13.7329 11.4866C13.5061 11.3351 13.3294 11.1198 13.2251 10.8678C13.1207 10.6159 13.0934 10.3387 13.1466 10.0712C13.1998 9.80373 13.3311 9.55806 13.524 9.36523C13.7168 9.1724 13.9625 9.04108 14.2299 8.98788C14.4974 8.93468 14.7746 8.96198 15.0265 9.06634C15.2785 9.1707 15.4938 9.34742 15.6453 9.57417C15.7968 9.80091 15.8777 10.0675 15.8777 10.3402C15.8777 10.7059 15.7324 11.0566 15.4739 11.3151C15.2153 11.5737 14.8646 11.719 14.4989 11.719Z" fill="black"/>
</g>
</svg>
